<svg xmlns="http://www.w3.org/2000/svg" version="1.0" width="48.000000pt" height="48.000000pt" viewBox="0 0 48.000000 48.000000" preserveAspectRatio="xMidYMid meet">
  <metadata>
    Created by potrace 1.16, written by Peter Selinger 2001-2019
  </metadata>
  <rect width="100%" height="100%" fill="#00BFFF" />
  <g transform="translate(0.000000,48.000000) scale(0.100000,-0.100000)" fill="#FFFFFF" stroke="none">
    <!-- Third (Black) Stack -->
    <path d="M0 415 l0 -64 83 35 c163 71 153 68 195 51 20 -8 74 -31 120 -51 l82 -35 0 64 0 65 -240 0 -240 0 0 -65z" />
    <!-- Second (Sky Blue) Stack -->
    <path d="M0 289 c0 -18 5 -29 14 -29 8 0 62 -20 120 -44 l107 -45 106 45 c58 24 112 44 119 44 9 0 14 11 14 29 l0 29 -114 -49 c-63 -27 -120 -49 -128 -49 -7 0 -64 22 -125 49 l-113 48 0 -28z" fill="#FFFFFF" />
    <!-- First (White) Stack -->
    <path d="M0 110 l0 -110 240 0 240 0 0 110 c0 61 -2 110 -4 110 -2 0 -56 -22 -120 -50 l-116 -49 -117 49 c-64 28 -119 50 -120 50 -2 0 -3 -49 -3 -110z" fill="#FFFFFF" />
    <!-- New Fourth (Black) Stack -->
    <path d="M0 415 l0 -64 83 35 c163 71 153 68 195 51 20 -8 74 -31 120 -51 l82 -35 0 64 0 65 -240 0 -240 0 0 -65z" fill="#FFFFFF" />
  </g>

</svg>
